<svg style="position: absolute" viewBox="0 0 32 32" xmlns="http://www.w3.org/2000/svg">
    <path fill="currentColor" d="M16 8c3.493 0 6.507 2.48 7.187 5.907l.4 2 2.04.147c2.08.133 3.707 1.88 3.707 3.947 0 2.2-1.8 4-4 4h-17.333c-2.947 0-5.333-2.387-5.333-5.333 0-2.733 2.04-5.013 4.747-5.293l1.427-.147.667-1.267c1.267-2.44 3.747-3.96 6.493-3.96zM16 5.333c-3.853 0-7.2 2.187-8.867 5.387-4.013.427-7.133 3.827-7.133 7.947 0 4.413 3.587 8 8 8h17.333c3.68 0 6.667-2.987 6.667-6.667 0-3.52-2.733-6.373-6.2-6.613-.907-4.6-4.947-8.053-9.8-8.053z"/>
    <path d="M18.6 8.325 9 17.5 5 13.5" stroke-linecap="round" stroke-linejoin="round" fill="none" stroke="currentColor" stroke-width="3.5" transform="matrix(.8 0 0 .8 5 7.5)"/>
</svg>
